<svg width="32.000000" height="32.000000" viewBox="0 0 32 32" fill="none" xmlns="http://www.w3.org/2000/svg" xmlns:xlink="http://www.w3.org/1999/xlink">
	<desc>
			Created with Pixso.
	</desc>
	<defs>
		<clipPath id="clip31_6587">
			<rect id="Cart1" width="24.000000" height="24.000000" transform="translate(1.000000 8.000000)" fill="white" fill-opacity="0"/>
		</clipPath>
	</defs>
	<rect id="Cart1" width="24.000000" height="24.000000" transform="translate(1.000000 8.000000)" fill="#FFFFFF" fill-opacity="0"/>
	<g clip-path="url(#clip31_6587)">
		<path id="Vector" d="M9.25 28.25C8.83594 28.25 8.5 27.9142 8.5 27.5C8.5 27.0858 8.83594 26.75 9.25 26.75C9.66406 26.75 10 27.0858 10 27.5C10 27.9142 9.66406 28.25 9.25 28.25Z" stroke="#000000" stroke-opacity="1.000000" stroke-width="1.500000" stroke-linejoin="round"/>
		<path id="Vector" d="M19.75 28.25C19.3359 28.25 19 27.9142 19 27.5C19 27.0858 19.3359 26.75 19.75 26.75C20.1641 26.75 20.5 27.0858 20.5 27.5C20.5 27.9142 20.1641 28.25 19.75 28.25Z" stroke="#000000" stroke-opacity="1.000000" stroke-width="1.500000" stroke-linejoin="round"/>
		<path id="Vector" d="M3.25 11.75L6.25 11.75L8.5 24.5L20.5 24.5" stroke="#000000" stroke-opacity="1.000000" stroke-width="1.500000" stroke-linejoin="round" stroke-linecap="round"/>
		<path id="Vector" d="M8.5 20.5L20.1924 20.5C20.2793 20.5001 20.3633 20.4701 20.4307 20.4151C20.4971 20.3601 20.543 20.2836 20.5605 20.1986L21.9102 13.4486C21.9209 13.3942 21.9199 13.338 21.9062 13.2841C21.8936 13.2303 21.8682 13.1801 21.833 13.1372C21.7979 13.0943 21.7529 13.0597 21.7031 13.036C21.6533 13.0122 21.5977 13 21.543 13L7 13" stroke="#000000" stroke-opacity="1.000000" stroke-width="1.500000" stroke-linejoin="round" stroke-linecap="round"/>
	</g>
	<circle id="Ellipse 1" cx="23.000000" cy="10.000000" r="8.000000" fill="#DB4444" fill-opacity="1.000000"/>
	<path id="2" d="M20.6623 13.124Q22.1857 11.8994 23.05 11.1143Q23.9143 10.3291 24.5061 9.4707Q25.1008 8.6123 25.1008 7.7832Q25.1008 7.00391 24.7229 6.55566Q24.3449 6.10449 23.507 6.10449Q22.6896 6.10449 22.2385 6.61426Q21.7902 7.12402 21.7551 7.97656L20.6975 7.97656Q20.7473 6.63184 21.5148 5.89941Q22.2824 5.16699 23.4953 5.16699Q24.7287 5.16699 25.4553 5.85254Q26.1818 6.53516 26.1818 7.73633Q26.1818 8.73242 25.5871 9.67578Q24.9953 10.6162 24.2365 11.3311Q23.4807 12.043 22.3059 12.9922L26.4338 12.9922L26.4338 13.9033L20.6623 13.9033L20.6623 13.124Z" fill="#FAFAFA" fill-opacity="1.000000" fill-rule="evenodd"/>
</svg>
