<svg width="24.000000" height="24.000000" viewBox="0 0 24 24" fill="none" xmlns="http://www.w3.org/2000/svg" xmlns:xlink="http://www.w3.org/1999/xlink">
	<desc>
			Created with Pixso.
	</desc>
	<defs>
		<clipPath id="clip24_2042">
			<rect id="Cart1" width="24.000000" height="24.000000" fill="white" fill-opacity="0"/>
		</clipPath>
	</defs>
	<rect id="Cart1" width="24.000000" height="24.000000" fill="#FFFFFF" fill-opacity="0"/>
	<g clip-path="url(#clip24_2042)">
		<path id="Vector" d="M8.25 20.25C7.83594 20.25 7.5 19.9142 7.5 19.5C7.5 19.0858 7.83594 18.75 8.25 18.75C8.66406 18.75 9 19.0858 9 19.5C9 19.9142 8.66406 20.25 8.25 20.25Z" stroke="#FFFFFF" stroke-opacity="1.000000" stroke-width="1.500000" stroke-linejoin="round"/>
		<path id="Vector" d="M18.75 20.25C18.3359 20.25 18 19.9142 18 19.5C18 19.0858 18.3359 18.75 18.75 18.75C19.1641 18.75 19.5 19.0858 19.5 19.5C19.5 19.9142 19.1641 20.25 18.75 20.25Z" stroke="#FFFFFF" stroke-opacity="1.000000" stroke-width="1.500000" stroke-linejoin="round"/>
		<path id="Vector" d="M2.25 3.75L5.25 3.75L7.5 16.5L19.5 16.5" stroke="#FFFFFF" stroke-opacity="1.000000" stroke-width="1.500000" stroke-linejoin="round" stroke-linecap="round"/>
		<path id="Vector" d="M7.5 12.5L19.1924 12.5C19.2793 12.5001 19.3633 12.47 19.4302 12.4151C19.4976 12.3602 19.5435 12.2836 19.5605 12.1986L20.9106 5.44861C20.9214 5.39417 20.9199 5.33801 20.9067 5.28412C20.8931 5.23029 20.8677 5.18011 20.8325 5.13715C20.7974 5.09424 20.7534 5.05969 20.7031 5.03595C20.6528 5.01227 20.5981 4.99994 20.5425 5L6 5" stroke="#FFFFFF" stroke-opacity="1.000000" stroke-width="1.500000" stroke-linejoin="round" stroke-linecap="round"/>
	</g>
</svg>
