<svg width="32.000000" height="32.000000" viewBox="0 0 32 32" fill="none" xmlns="http://www.w3.org/2000/svg" xmlns:xlink="http://www.w3.org/1999/xlink">
	<desc>
			Created with Pixso.
	</desc>
	<defs>
		<clipPath id="clip2_6492">
			<rect id="Cart1" width="32.000000" height="32.000000" fill="white" fill-opacity="0"/>
		</clipPath>
	</defs>
	<rect id="Cart1" width="32.000000" height="32.000000" fill="#FFFFFF" fill-opacity="0"/>
	<g clip-path="url(#clip2_6492)">
		<path id="Vector" d="M11 27C10.4478 27 10 26.5523 10 26C10 25.4477 10.4478 25 11 25C11.5522 25 12 25.4477 12 26C12 26.5523 11.5522 27 11 27Z" stroke="#000000" stroke-opacity="1.000000" stroke-width="1.500000" stroke-linejoin="round"/>
		<path id="Vector" d="M25 27C24.4478 27 24 26.5523 24 26C24 25.4477 24.4478 25 25 25C25.5522 25 26 25.4477 26 26C26 26.5523 25.5522 27 25 27Z" stroke="#000000" stroke-opacity="1.000000" stroke-width="1.500000" stroke-linejoin="round"/>
		<path id="Vector" d="M3 5L7 5L10 22L26 22" stroke="#000000" stroke-opacity="1.000000" stroke-width="1.500000" stroke-linejoin="round" stroke-linecap="round"/>
		<path id="Vector" d="M10 16.6667L25.5898 16.6667C25.7056 16.6667 25.8179 16.6267 25.9072 16.5535C25.9966 16.4802 26.0581 16.3782 26.0806 16.2648L27.8809 7.26479C27.895 7.19221 27.8936 7.11732 27.8755 7.04552C27.8574 6.97372 27.8237 6.90678 27.7769 6.84956C27.73 6.79234 27.6709 6.74625 27.604 6.71462C27.5371 6.68299 27.4639 6.66661 27.3901 6.66666L8 6.66666" stroke="#000000" stroke-opacity="1.000000" stroke-width="1.500000" stroke-linejoin="round" stroke-linecap="round"/>
	</g>
</svg>
