<svg width="34.000000" height="34.000000" viewBox="0 0 34 34" fill="none" xmlns="http://www.w3.org/2000/svg" xmlns:xlink="http://www.w3.org/1999/xlink">
	<desc>
			Created with Pixso.
	</desc>
	<defs>
		<clipPath id="clip10_3081">
			<rect id="Quick View" width="24.000000" height="24.000000" transform="translate(5.000000 5.000000)" fill="white" fill-opacity="0"/>
		</clipPath>
	</defs>
	<circle id="Ellipse 13" cx="17.000000" cy="17.000000" r="17.000000" fill="#FFFFFF" fill-opacity="1.000000"/>
	<rect id="Quick View" width="24.000000" height="24.000000" transform="translate(5.000000 5.000000)" fill="#FFFFFF" fill-opacity="0"/>
	<g clip-path="url(#clip10_3081)">
		<path id="Vector" d="M26.2568 18.038C24.7642 19.987 21.1821 24 17 24C12.8179 24 9.23584 19.987 7.74316 18.038C7.51221 17.7411 7.38721 17.3759 7.38721 17C7.38721 16.6241 7.51221 16.2589 7.74316 15.962C9.23584 14.013 12.8179 10 17 10C21.1821 10 24.7642 14.013 26.2568 15.962C26.731 16.582 26.731 17.419 26.2568 18.038Z" stroke="#000000" stroke-opacity="1.000000" stroke-width="1.500000" stroke-linejoin="round"/>
		<path id="Vector" d="M17 20C15.3433 20 14 18.6569 14 17C14 15.3431 15.3433 14 17 14C18.6567 14 20 15.3431 20 17C20 18.6569 18.6567 20 17 20Z" stroke="#000000" stroke-opacity="1.000000" stroke-width="1.500000" stroke-linejoin="round"/>
	</g>
</svg>
