<svg width="24.000000" height="24.000000" viewBox="0 0 24 24" fill="none" xmlns="http://www.w3.org/2000/svg" xmlns:xlink="http://www.w3.org/1999/xlink">
	<desc>
			Created with Pixso.
	</desc>
	<defs>
		<clipPath id="clip21_5367">
			<rect id="Icon-Linkedin" width="24.000000" height="24.000000" fill="white" fill-opacity="0"/>
		</clipPath>
	</defs>
	<g clip-path="url(#clip21_5367)">
		<path id="Vector" d="M11.5 9.0498C12.417 8.11279 13.6108 7.5 15 7.5C16.4585 7.5 17.8574 8.07959 18.8892 9.11084C19.9204 10.1426 20.5 11.5415 20.5 13L20.5 20.5L18.5 20.5L18.5 13C18.5 12.0718 18.1313 11.1816 17.4751 10.5249C16.8184 9.86865 15.9282 9.5 15 9.5C14.0718 9.5 13.1816 9.86865 12.5249 10.5249C11.8687 11.1816 11.5 12.0718 11.5 13L11.5 20.5L9.5 20.5L9.5 8L11.5 8L11.5 9.0498ZM4.5 6C4.10205 6 3.7207 5.8418 3.43945 5.56055C3.1582 5.2793 3 4.89795 3 4.5C3 4.10205 3.1582 3.7207 3.43945 3.43945C3.7207 3.1582 4.10205 3 4.5 3C4.89795 3 5.2793 3.1582 5.56055 3.43945C5.8418 3.7207 6 4.10205 6 4.5C6 4.89795 5.8418 5.2793 5.56055 5.56055C5.2793 5.8418 4.89795 6 4.5 6ZM3.5 8L5.5 8L5.5 20.5L3.5 20.5L3.5 8Z" fill="#FFFFFF" fill-opacity="1.000000" fill-rule="nonzero"/>
	</g>
</svg>
