<svg width="24.000000" height="24.000000" viewBox="0 0 24 24" fill="none" xmlns="http://www.w3.org/2000/svg" xmlns:xlink="http://www.w3.org/1999/xlink">
	<desc>
			Created with Pixso.
	</desc>
	<defs>
		<clipPath id="clip21_5365">
			<rect id="icon-instagram" width="24.000000" height="24.000000" fill="white" fill-opacity="0"/>
		</clipPath>
	</defs>
	<g clip-path="url(#clip21_5365)">
		<path id="Vector" d="M7 3C5.93896 3 4.92188 3.42139 4.17139 4.17139C3.42139 4.92188 3 5.93896 3 7L3 17C3 18.061 3.42139 19.0781 4.17139 19.8286C4.92188 20.5786 5.93896 21 7 21L17 21C18.061 21 19.0781 20.5786 19.8286 19.8286C20.5786 19.0781 21 18.061 21 17L21 7C21 5.93896 20.5786 4.92188 19.8286 4.17139C19.0781 3.42139 18.061 3 17 3L7 3Z" stroke="#FFFFFF" stroke-opacity="1.000000" stroke-width="1.500000" stroke-linejoin="round"/>
		<path id="Vector" d="M14.8286 14.8286C15.5786 14.0781 16 13.061 16 12C16 10.939 15.5786 9.92188 14.8286 9.17139C14.0781 8.42139 13.061 8 12 8C10.939 8 9.92188 8.42139 9.17139 9.17139C8.42139 9.92188 8 10.939 8 12C8 13.061 8.42139 14.0781 9.17139 14.8286C9.92188 15.5786 10.939 16 12 16C13.061 16 14.0781 15.5786 14.8286 14.8286Z" stroke="#FFFFFF" stroke-opacity="1.000000" stroke-width="1.500000" stroke-linejoin="round"/>
		<path id="Vector" d="M17.5 7.5C17.7651 7.5 18.0195 7.39453 18.207 7.20703C18.3945 7.01953 18.5 6.76514 18.5 6.5C18.5 6.23486 18.3945 5.98047 18.207 5.79297C18.0195 5.60547 17.7651 5.5 17.5 5.5C17.2349 5.5 16.9805 5.60547 16.793 5.79297C16.6055 5.98047 16.5 6.23486 16.5 6.5C16.5 6.76514 16.6055 7.01953 16.793 7.20703C16.9805 7.39453 17.2349 7.5 17.5 7.5Z" fill="#FFFFFF" fill-opacity="1.000000" fill-rule="nonzero"/>
	</g>
</svg>
