<svg width="32.000000" height="32.000000" viewBox="0 0 32 32" fill="none" xmlns="http://www.w3.org/2000/svg" xmlns:xlink="http://www.w3.org/1999/xlink">
	<desc>
			Created with Pixso.
	</desc>
	<defs>
		<filter id="filter_21_5360_dd" x="0.000000" y="0.000000" width="32.000000" height="32.000000" filterUnits="userSpaceOnUse" color-interpolation-filters="sRGB">
			<feFlood flood-opacity="0" result="BackgroundImageFix"/>
			<feColorMatrix in="SourceAlpha" type="matrix" values="0 0 0 0 0 0 0 0 0 0 0 0 0 0 0 0 0 0 127 0" result="hardAlpha"/>
			<feOffset dx="0" dy="4"/>
			<feGaussianBlur stdDeviation="1.33333"/>
			<feComposite in2="hardAlpha" operator="out" k2="-1" k3="1"/>
			<feColorMatrix type="matrix" values="0 0 0 0 0 0 0 0 0 0 0 0 0 0 0 0 0 0 0.25 0"/>
			<feBlend mode="normal" in2="BackgroundImageFix" result="effect_dropShadow_1"/>
			<feBlend mode="normal" in="SourceGraphic" in2="effect_dropShadow_1" result="shape"/>
		</filter>
		<clipPath id="clip21_5360">
			<rect id="Icon-Twitter" width="24.000000" height="24.000000" transform="translate(4.000000 0.000000)" fill="white" fill-opacity="0"/>
		</clipPath>
	</defs>
	<g filter="url(#filter_21_5360_dd)">
		<rect id="Icon-Twitter" width="24.000000" height="24.000000" transform="translate(4.000000 0.000000)" fill="#FFFFFF" fill-opacity="0"/>
		<g clip-path="url(#clip21_5360)">
			<path id="Vector" d="M19.9048 6.00146C19.145 6.00098 18.415 6.29932 17.873 6.83203C17.3306 7.36426 17.019 8.08838 17.0049 8.84814L16.9771 10.4233C16.9756 10.5078 16.9561 10.5913 16.9199 10.6675C16.8838 10.7441 16.832 10.812 16.7676 10.8672C16.7036 10.9224 16.6284 10.9629 16.5474 10.9868C16.4663 11.0112 16.3809 11.0176 16.2969 11.0063L14.7358 10.7944C12.6821 10.5142 10.7139 9.56836 8.82617 7.99512C8.22803 11.3052 9.396 13.5981 12.209 15.3672L13.9561 16.4653C14.0391 16.5176 14.1079 16.5894 14.1567 16.6743C14.2056 16.7593 14.2329 16.855 14.2363 16.9526C14.2397 17.0508 14.2192 17.1479 14.1763 17.2363C14.1333 17.3242 14.0693 17.4004 13.9902 17.4585L12.3979 18.6211C13.3452 18.6802 14.2441 18.6382 14.9902 18.4902C19.708 17.5483 22.8452 13.998 22.8452 8.14209C22.8452 7.66406 21.833 6.00146 19.9048 6.00146ZM15.0049 8.81152C15.0225 7.84717 15.3237 6.91016 15.8716 6.1167C16.4194 5.32324 17.189 4.70898 18.084 4.35059C18.979 3.99268 19.96 3.90625 20.9038 4.10303C21.8477 4.2998 22.7124 4.77051 23.3901 5.45605C24.1011 5.45117 24.7061 5.63135 26.0591 4.81152C25.7241 6.45117 25.5591 7.16309 24.8452 8.14209C24.8452 15.7842 20.1479 19.5005 15.3818 20.4512C12.1138 21.1035 7.36182 20.0322 6 18.6104C6.69385 18.5562 9.51416 18.2534 11.144 17.0601C9.76514 16.1514 4.27588 12.9214 7.88281 4.2373C9.57617 6.21436 11.293 7.56006 13.0332 8.27441C14.1909 8.74951 14.4751 8.73926 15.0059 8.8125L15.0049 8.81152Z" fill="#FFFFFF" fill-opacity="1.000000" fill-rule="nonzero"/>
			<path id="Vector" d="M23.3901 5.45605C22.7124 4.77051 21.8477 4.2998 20.9038 4.10303C19.96 3.90625 18.979 3.99268 18.084 4.35059C17.189 4.70898 16.4194 5.32324 15.8716 6.1167C15.3618 6.85498 15.0654 7.71826 15.0127 8.61133C15.0088 8.67773 15.0063 8.74463 15.0049 8.81152L15.0059 8.8125C14.9355 8.80273 14.8696 8.79443 14.8057 8.78613C14.3843 8.7334 14.0376 8.68652 13.0332 8.27441C11.3433 7.58105 9.6748 6.2915 8.0293 4.40674C7.98047 4.35059 7.93164 4.29443 7.88281 4.2373C7.854 4.30713 7.82568 4.37598 7.79785 4.44531C4.49902 12.6372 9.36377 15.8994 10.9644 16.9429C10.979 16.9526 10.9937 16.9619 11.0073 16.9712C11.0566 17.0029 11.1021 17.0327 11.144 17.0601C11.0864 17.1025 11.0273 17.1436 10.9668 17.1836C9.48535 18.1636 7.19824 18.4922 6.2627 18.5864C6.15674 18.5972 6.06836 18.605 6 18.6104C6.05957 18.6724 6.125 18.7334 6.19678 18.7939C7.77344 20.1226 12.2563 21.0747 15.3818 20.4512C20.1479 19.5005 24.8452 15.7842 24.8452 8.14209C25.5195 7.21729 25.7041 6.53076 26.0049 5.0752C26.0225 4.99023 26.0405 4.90234 26.0591 4.81152C25.979 4.85986 25.9019 4.90479 25.8271 4.94629C24.8311 5.50098 24.2656 5.48145 23.7168 5.46289C23.6084 5.45898 23.5005 5.45557 23.3901 5.45605ZM25.7739 5.20166Q25.209 5.49609 24.7227 5.6001Q24.46 5.65625 24.1787 5.66699Q24.0137 5.67334 23.71 5.6626Q23.4976 5.65576 23.3916 5.65625L23.3071 5.65674L23.2476 5.59668Q23.0039 5.3501 22.73 5.14404Q22.4556 4.9375 22.1509 4.77197Q21.8467 4.60596 21.5244 4.48779Q21.2026 4.36963 20.8628 4.29883Q20.5234 4.22803 20.1807 4.20801Q19.8384 4.1875 19.4932 4.21826Q19.1475 4.24854 18.814 4.32812Q18.48 4.40771 18.1582 4.53613Q17.8364 4.66504 17.54 4.83789Q17.2432 5.01025 16.9722 5.22656Q16.7012 5.44287 16.4673 5.69385Q16.2334 5.94482 16.0361 6.22998Q15.8394 6.51562 15.6875 6.82324Q15.5361 7.13086 15.4297 7.46143Q15.3237 7.7915 15.2676 8.12988Q15.2183 8.42725 15.207 8.73047L15.5684 9.09131L14.979 9.01025Q14.9155 9.00146 14.7964 8.98682Q14.3765 8.93408 14.0972 8.86084Q13.6538 8.74512 12.957 8.45947Q10.4131 7.41553 7.9458 4.61426Q6.86523 7.33643 6.87549 9.63477Q6.88281 11.3872 7.52441 12.8647Q7.61768 13.0791 7.72412 13.2881Q8.37109 14.5557 9.50098 15.5874Q9.91211 15.9624 10.3975 16.3145Q10.6748 16.5156 11.1167 16.8037Q11.2119 16.8652 11.2539 16.8931L11.4941 17.0518L11.2622 17.2217Q10.1836 18.0112 8.26611 18.457Q7.60547 18.6108 6.89502 18.7109Q6.68066 18.7412 6.48047 18.7646Q6.93115 19.0986 7.65869 19.4053Q8.68604 19.8384 10.0166 20.1128Q11.3799 20.3936 12.7354 20.439Q14.1807 20.4868 15.3428 20.2554Q17.0107 19.9224 18.4736 19.1836Q18.626 19.1069 18.7759 19.0254Q20.0679 18.3257 21.0981 17.3496Q21.439 17.0269 21.751 16.6733Q22.0024 16.3892 22.2319 16.0879Q23.2529 14.751 23.8481 13.0884Q24.645 10.8633 24.645 8.14209L24.645 8.07715L24.6836 8.02441Q24.9399 7.67236 25.1118 7.34619Q25.2793 7.02832 25.4048 6.66016Q25.52 6.32275 25.6338 5.83984Q25.689 5.60547 25.7739 5.20166ZM18.1997 6.31152Q17.9502 6.47559 17.7329 6.68896Q17.5151 6.90234 17.3462 7.14941Q17.1777 7.396 17.0571 7.67578Q16.9365 7.95557 16.8735 8.24756Q16.8105 8.54004 16.8052 8.84473L16.7769 10.4199Q16.7764 10.4604 16.7676 10.4995Q16.7578 10.542 16.7388 10.5825Q16.7207 10.6211 16.6953 10.6543Q16.6699 10.6875 16.6377 10.7153Q16.605 10.7432 16.5684 10.7632Q16.5317 10.7832 16.4907 10.7954Q16.4497 10.8076 16.4077 10.8105Q16.3662 10.814 16.3237 10.8081L14.7627 10.5962Q11.7705 10.188 8.9541 7.8418L8.69043 7.62207L8.62939 7.95996Q8.17529 10.4712 9.05762 12.3442Q9.91211 14.1592 12.1025 15.5366L13.8496 16.6348Q13.8916 16.6611 13.9253 16.6958Q13.9585 16.731 13.9834 16.7739Q14.0083 16.8169 14.0215 16.8633Q14.0347 16.9097 14.0366 16.9595Q14.0381 17.0093 14.0283 17.0566Q14.0181 17.104 13.9961 17.1484Q13.9746 17.1934 13.9434 17.2305Q13.9126 17.2671 13.8721 17.2964L11.833 18.7866L12.3857 18.8208Q13.8813 18.9141 15.0288 18.6865Q16.8433 18.3242 18.3081 17.4722Q19.2622 16.918 20.0347 16.1748Q20.4678 15.7583 20.8438 15.2832Q21.916 13.9272 22.4722 12.1572Q23.0449 10.3325 23.0449 8.14209Q23.0449 7.89014 22.8311 7.5083Q22.603 7.10107 22.2368 6.74854Q21.9097 6.43359 21.5269 6.21973Q21.396 6.14697 21.2593 6.08594Q21.0342 5.98535 20.7988 5.92041Q20.3687 5.80127 19.9048 5.80127Q19.6006 5.80127 19.3076 5.85889Q19.0137 5.9165 18.7314 6.03174Q18.4497 6.14697 18.1997 6.31152ZM19.9048 6.00146C19.145 6.00098 18.415 6.29932 17.873 6.83203C17.3306 7.36426 17.019 8.08838 17.0049 8.84814L16.9771 10.4233C16.9756 10.5078 16.9561 10.5913 16.9199 10.6675C16.8838 10.7441 16.832 10.812 16.7676 10.8672C16.7036 10.9224 16.6284 10.9629 16.5474 10.9868C16.4663 11.0112 16.3809 11.0176 16.2969 11.0063L14.7358 10.7944C12.7461 10.5229 10.8374 9.62695 9.00342 8.14111C8.94434 8.09326 8.88525 8.04443 8.82617 7.99512C8.81201 8.07178 8.79932 8.14746 8.7876 8.22314C8.28271 11.4111 9.46094 13.6392 12.209 15.3672L13.9561 16.4653C14.0391 16.5176 14.1079 16.5894 14.1567 16.6743C14.2056 16.7593 14.2329 16.855 14.2363 16.9526C14.2397 17.0508 14.2192 17.1479 14.1763 17.2363C14.1333 17.3242 14.0693 17.4004 13.9902 17.4585L12.6533 18.4346L12.3979 18.6211C12.5044 18.6279 12.6099 18.6333 12.7148 18.6372C13.5449 18.6694 14.3276 18.6216 14.9902 18.4902C19.708 17.5483 22.8452 13.998 22.8452 8.14209C22.8452 7.66406 21.833 6.00146 19.9048 6.00146Z" fill="#000000" fill-opacity="1.000000" fill-rule="evenodd"/>
		</g>
	</g>
</svg>
