<svg width="56.000000" height="56.000000" viewBox="0 0 56 56" fill="none" xmlns="http://www.w3.org/2000/svg" xmlns:xlink="http://www.w3.org/1999/xlink">
	<desc>
			Created with Pixso.
	</desc>
	<defs>
		<clipPath id="clip15_1932">
			<rect id="Category-Camera" width="56.000000" height="56.000000" fill="white" fill-opacity="0"/>
		</clipPath>
	</defs>
	<g clip-path="url(#clip15_1932)">
		<path id="Vector" d="M14 16.3334C15.2378 16.3334 16.4248 15.8417 17.2998 14.9666C18.1748 14.0913 18.6665 12.9044 18.6665 11.6667C18.6665 11.0479 18.9126 10.4543 19.3501 10.0168C19.7876 9.57922 20.3813 9.33337 21 9.33337L35 9.33337C35.6187 9.33337 36.2124 9.57922 36.6499 10.0168C37.0874 10.4543 37.3335 11.0479 37.3335 11.6667C37.3335 12.9044 37.8252 14.0913 38.7002 14.9666C39.5752 15.8417 40.7622 16.3334 42 16.3334L44.3335 16.3334C45.5708 16.3334 46.7578 16.8251 47.6333 17.7002C48.5083 18.5754 49 19.7623 49 21L49 42C49 43.2377 48.5083 44.4247 47.6333 45.2999C46.7578 46.175 45.5708 46.6667 44.3335 46.6667L11.6665 46.6667C10.4292 46.6667 9.24219 46.175 8.3667 45.2999C7.4917 44.4247 7 43.2377 7 42L7 21C7 19.7623 7.4917 18.5754 8.3667 17.7002C9.24219 16.8251 10.4292 16.3334 11.6665 16.3334L14 16.3334Z" stroke="#000000" stroke-opacity="1.000000" stroke-width="2.000000" stroke-linejoin="round"/>
		<path id="Vector" d="M28 37.3334C24.1338 37.3334 21 34.1993 21 30.3334C21 26.4674 24.1338 23.3334 28 23.3334C31.8662 23.3334 35 26.4674 35 30.3334C35 34.1993 31.8662 37.3334 28 37.3334Z" stroke="#000000" stroke-opacity="1.000000" stroke-width="2.000000" stroke-linejoin="round"/>
	</g>
</svg>
