<svg width="56.000000" height="56.000000" viewBox="0 0 56 56" fill="none" xmlns="http://www.w3.org/2000/svg" xmlns:xlink="http://www.w3.org/1999/xlink">
	<desc>
			Created with Pixso.
	</desc>
	<defs>
		<clipPath id="clip15_1652">
			<rect id="Category-Headphone" width="56.000000" height="56.000000" fill="white" fill-opacity="0"/>
		</clipPath>
	</defs>
	<rect id="Category-Headphone" width="56.000000" height="56.000000" fill="#FFFFFF" fill-opacity="0"/>
	<g clip-path="url(#clip15_1652)">
		<path id="Vector" d="M16.3335 30.3334C18.9106 30.3334 21 32.4227 21 35L21 42C21 44.5774 18.9106 46.6667 16.3335 46.6667L14 46.6667C11.4229 46.6667 9.3335 44.5774 9.3335 42L9.3335 35C9.3335 32.4227 11.4229 30.3334 14 30.3334L16.3335 30.3334Z" stroke="#000000" stroke-opacity="1.000000" stroke-width="2.000000" stroke-linejoin="round"/>
		<path id="Vector" d="M42 30.3334C44.5771 30.3334 46.6665 32.4227 46.6665 35L46.6665 42C46.6665 44.5774 44.5771 46.6667 42 46.6667L39.6665 46.6667C37.0894 46.6667 35 44.5774 35 42L35 35C35 32.4227 37.0894 30.3334 39.6665 30.3334L42 30.3334Z" stroke="#000000" stroke-opacity="1.000000" stroke-width="2.000000" stroke-linejoin="round"/>
		<path id="Vector" d="M9.3335 35L9.3335 28C9.3335 23.0493 11.3003 18.3014 14.8008 14.8007C18.3018 11.3 23.0493 9.33337 28 9.33337C32.9507 9.33337 37.6987 11.3 41.1997 14.8007C44.7002 18.3014 46.667 23.0493 46.667 28L46.667 35" stroke="#000000" stroke-opacity="1.000000" stroke-width="2.000000" stroke-linejoin="round" stroke-linecap="round"/>
	</g>
</svg>
